<svg xmlns="http://www.w3.org/2000/svg" xmlns:xlink="http://www.w3.org/1999/xlink" width="500" zoomAndPan="magnify" viewBox="0 0 375 374.999991" height="500" preserveAspectRatio="xMidYMid meet" version="1.0"><defs><clipPath id="f7cf76cc26"><path d="M 69.410156 12.320312 L 305.660156 12.320312 L 305.660156 362.570312 L 69.410156 362.570312 Z M 69.410156 12.320312 " clip-rule="nonzero"/></clipPath></defs><g clip-path="url(#f7cf76cc26)"><path fill="#1200e4" d="M 209.316406 130.519531 L 305.578125 130.519531 C 305.578125 65.300781 252.695312 12.433594 187.496094 12.433594 C 122.296875 12.433594 69.410156 65.300781 69.410156 130.519531 L 165.65625 130.519531 C 110.878906 140.75 69.410156 188.789062 69.410156 246.53125 L 165.65625 246.53125 C 110.878906 256.777344 69.410156 304.808594 69.410156 362.558594 L 305.578125 362.558594 C 305.578125 304.820312 264.109375 256.777344 209.335938 246.53125 L 305.578125 246.53125 C 305.578125 188.789062 264.089844 140.75 209.316406 130.519531 Z M 209.316406 130.519531 " fill-opacity="1" fill-rule="nonzero"/></g></svg>